<svg id="svg" version="1.1" xmlns="http://www.w3.org/2000/svg" xmlns:xlink="http://www.w3.org/1999/xlink" width="400" height="400" viewBox="0, 0, 400,400"><g id="svgg"><path id="path0" d="M211.256 119.011 C 206.431 120.187,200.606 124.321,197.657 128.662 C 196.416 130.489,196.507 130.597,199.700 131.083 C 204.180 131.766,210.190 133.615,216.149 136.143 C 218.233 137.027,218.080 137.089,220.009 134.589 C 221.643 132.471,225.838 128.816,227.982 127.643 C 230.221 126.418,231.983 125.600,232.381 125.600 C 234.240 125.600,229.650 122.352,225.310 120.597 C 219.887 118.404,215.690 117.930,211.256 119.011 M179.600 120.587 C 164.545 122.972,153.049 131.216,146.947 144.000 C 144.989 148.103,144.929 148.252,144.068 151.200 C 142.120 157.870,142.124 157.890,145.237 156.837 C 146.426 156.434,148.210 155.880,149.200 155.606 C 150.190 155.332,151.450 154.962,152.000 154.784 C 153.185 154.402,157.254 153.734,160.563 153.380 C 163.768 153.037,163.870 152.974,164.158 151.175 C 166.030 139.463,175.009 131.279,187.168 130.203 L 190.502 129.908 194.551 125.727 C 196.778 123.428,198.649 121.410,198.710 121.244 C 199.122 120.107,185.567 119.641,179.600 120.587 M236.163 130.390 C 233.104 131.038,231.805 131.873,227.100 136.217 C 221.972 140.952,221.890 141.070,223.500 141.432 C 243.410 145.911,249.788 166.159,236.735 183.452 C 233.838 187.291,230.720 190.578,224.693 196.146 C 222.106 198.536,219.616 201.016,219.159 201.657 L 218.329 202.823 220.730 205.389 C 222.051 206.800,223.713 208.820,224.425 209.878 C 226.805 213.411,228.000 214.392,228.000 212.812 C 228.000 210.042,232.470 203.683,236.539 200.663 C 241.269 197.152,243.053 196.110,253.425 190.798 C 264.131 185.315,267.169 180.133,267.193 167.320 C 267.212 156.387,262.694 149.991,252.138 146.010 C 250.840 145.521,250.429 144.720,250.388 142.600 C 250.229 134.374,243.721 128.788,236.163 130.390 M186.000 134.204 C 173.331 137.084,167.975 145.607,168.014 162.824 C 168.040 173.976,170.842 180.909,177.072 185.238 C 179.274 186.768,179.200 186.829,179.203 183.500 C 179.210 177.244,180.913 168.320,183.077 163.200 C 188.154 151.188,196.868 143.234,209.202 139.352 C 213.252 138.077,213.218 137.939,208.500 136.469 C 199.741 133.740,191.634 132.924,186.000 134.204 M213.200 145.290 C 207.199 147.038,201.829 149.364,196.500 152.524 C 193.694 154.188,193.829 154.399,197.700 154.405 C 207.322 154.419,214.356 159.775,218.056 169.907 C 218.795 171.931,219.514 173.590,219.653 173.594 C 219.902 173.600,219.987 173.413,220.824 171.000 C 223.679 162.773,222.772 154.568,218.260 147.800 C 216.075 144.522,215.986 144.478,213.200 145.290 M224.959 149.363 C 224.822 149.719,225.070 150.952,225.509 152.105 C 225.947 153.257,226.493 154.920,226.721 155.800 C 226.950 156.680,227.331 158.141,227.568 159.046 C 228.916 164.187,227.530 171.799,224.495 175.926 C 223.958 176.656,223.582 177.293,223.660 177.342 C 225.508 178.526,226.999 180.006,227.862 181.514 C 228.456 182.551,228.991 183.465,229.050 183.546 C 229.778 184.529,235.372 177.353,237.114 173.200 C 241.159 163.562,236.279 151.016,227.872 149.440 C 227.031 149.282,226.087 149.055,225.775 148.935 C 225.462 148.815,225.095 149.008,224.959 149.363 M160.600 159.202 C 144.183 162.302,137.582 168.120,134.282 182.400 C 130.463 198.920,133.988 211.142,143.925 215.832 C 145.616 216.631,147.262 217.415,147.583 217.575 C 147.904 217.735,148.311 218.481,148.487 219.233 C 151.766 233.210,160.436 238.230,172.600 233.195 C 179.217 230.455,184.083 227.680,195.000 220.417 C 207.585 212.043,213.223 210.323,219.980 212.793 C 221.172 213.229,222.239 213.494,222.350 213.383 C 223.066 212.668,214.754 206.139,210.800 204.312 C 207.462 202.768,198.969 199.532,193.600 197.758 C 191.950 197.213,190.240 196.612,189.800 196.422 C 189.360 196.233,187.920 195.669,186.600 195.170 C 184.411 194.341,182.222 193.410,178.400 191.680 C 174.477 189.905,167.210 183.793,167.202 182.262 C 167.201 182.076,166.864 181.446,166.454 180.862 C 163.672 176.903,162.725 169.587,163.842 160.700 C 164.109 158.571,164.061 158.549,160.600 159.202 M190.366 159.861 C 189.364 161.041,186.931 166.336,185.891 169.600 C 182.745 179.474,183.303 185.838,187.664 189.839 C 194.850 196.432,203.156 196.819,215.896 191.154 C 216.828 190.739,217.685 190.400,217.800 190.400 C 217.915 190.400,218.817 190.040,219.804 189.600 C 220.792 189.160,222.408 188.440,223.396 188.000 C 224.383 187.560,225.373 187.200,225.596 187.200 C 226.449 187.200,225.937 185.914,224.434 184.284 C 222.212 181.873,218.744 180.007,212.800 178.025 C 201.718 174.328,197.946 170.878,198.576 165.015 C 199.131 159.841,199.253 160.230,197.000 159.963 C 195.900 159.832,194.099 159.590,192.997 159.424 C 191.308 159.170,190.895 159.239,190.366 159.861 M204.000 164.216 C 204.000 167.403,207.196 170.522,212.204 172.222 C 213.961 172.819,214.103 172.813,214.623 172.128 C 216.345 169.855,213.370 166.484,207.800 164.399 C 207.360 164.234,206.497 163.897,205.881 163.650 C 204.266 163.000,204.000 163.080,204.000 164.216 M258.800 195.063 C 256.173 195.940,251.606 197.868,250.738 198.467 C 250.154 198.870,249.562 199.200,249.423 199.200 C 246.960 199.200,234.459 210.746,230.583 216.600 C 227.986 220.523,227.632 220.905,227.013 220.451 C 226.786 220.285,225.250 219.742,223.600 219.245 C 221.950 218.749,220.047 218.175,219.372 217.971 C 212.998 216.046,202.552 220.002,191.509 228.524 C 188.251 231.038,188.263 230.881,191.058 234.661 C 198.825 245.164,207.903 249.662,216.800 247.416 C 223.662 245.684,227.612 243.358,234.059 237.254 C 236.193 235.233,238.264 233.600,238.693 233.600 C 241.308 233.600,248.359 230.574,251.800 227.975 C 256.854 224.157,259.398 220.333,261.043 214.080 C 261.709 211.548,261.794 202.419,261.178 199.677 C 260.527 196.779,259.896 194.797,259.636 194.832 C 259.506 194.849,259.130 194.953,258.800 195.063 " stroke="none" fill="#fc8d9d" fill-rule="evenodd"></path><path id="path1" d="M210.000 112.800 C 210.000 113.020,209.280 113.200,208.400 113.200 C 207.520 113.200,206.800 113.380,206.800 113.600 C 206.800 113.820,206.260 114.000,205.600 114.000 C 204.940 114.000,204.400 114.180,204.400 114.400 C 204.400 114.622,203.333 114.800,202.000 114.800 C 200.667 114.800,199.600 114.622,199.600 114.400 C 199.600 114.144,196.133 114.000,190.000 114.000 C 183.867 114.000,180.400 114.144,180.400 114.400 C 180.400 114.629,179.200 114.800,177.600 114.800 C 176.000 114.800,174.800 114.971,174.800 115.200 C 174.800 115.420,174.260 115.600,173.600 115.600 C 172.940 115.600,172.400 115.780,172.400 116.000 C 172.400 116.220,171.680 116.400,170.800 116.400 C 169.920 116.400,169.200 116.580,169.200 116.800 C 169.200 117.020,168.840 117.200,168.400 117.200 C 167.960 117.200,167.600 117.380,167.600 117.600 C 167.600 117.820,167.060 118.000,166.400 118.000 C 165.740 118.000,165.200 118.180,165.200 118.400 C 165.200 118.620,164.840 118.800,164.400 118.800 C 163.960 118.800,163.600 118.980,163.600 119.200 C 163.600 119.420,163.240 119.600,162.800 119.600 C 162.360 119.600,162.000 119.780,162.000 120.000 C 162.000 120.220,161.640 120.400,161.200 120.400 C 160.760 120.400,160.400 120.580,160.400 120.800 C 160.400 121.020,160.080 121.200,159.688 121.200 C 159.297 121.200,158.717 121.560,158.400 122.000 C 158.083 122.440,157.575 122.800,157.272 122.800 C 156.969 122.800,156.217 123.340,155.600 124.000 C 154.983 124.660,154.278 125.200,154.032 125.200 C 153.473 125.200,148.400 130.237,148.400 130.792 C 148.400 131.016,147.680 131.941,146.800 132.848 C 145.920 133.755,145.200 134.705,145.200 134.960 C 145.200 135.215,144.840 135.683,144.400 136.000 C 143.960 136.317,143.600 136.897,143.600 137.288 C 143.600 137.680,143.420 138.000,143.200 138.000 C 142.980 138.000,142.800 138.360,142.800 138.800 C 142.800 139.240,142.620 139.600,142.400 139.600 C 142.180 139.600,142.000 139.960,142.000 140.400 C 142.000 140.840,141.820 141.200,141.600 141.200 C 141.380 141.200,141.200 141.560,141.200 142.000 C 141.200 142.440,141.020 142.800,140.800 142.800 C 140.580 142.800,140.400 143.160,140.400 143.600 C 140.400 144.040,140.220 144.400,140.000 144.400 C 139.780 144.400,139.600 144.760,139.600 145.200 C 139.600 145.640,139.420 146.000,139.200 146.000 C 138.980 146.000,138.800 146.540,138.800 147.200 C 138.800 147.860,138.620 148.400,138.400 148.400 C 138.180 148.400,138.000 148.940,138.000 149.600 C 138.000 150.260,137.820 150.800,137.600 150.800 C 137.380 150.800,137.200 151.700,137.200 152.800 C 137.200 153.900,137.020 154.800,136.800 154.800 C 136.560 154.800,136.400 156.400,136.400 158.800 C 136.400 161.200,136.560 162.800,136.800 162.800 C 137.020 162.800,137.200 162.980,137.200 163.200 C 137.200 163.420,136.924 163.600,136.587 163.600 C 136.251 163.600,135.857 163.915,135.712 164.300 C 135.567 164.685,134.943 165.477,134.325 166.060 C 133.706 166.644,133.200 167.409,133.200 167.760 C 133.200 168.112,133.020 168.400,132.800 168.400 C 132.580 168.400,132.400 168.678,132.400 169.017 C 132.400 169.356,132.040 170.020,131.600 170.492 C 131.160 170.964,130.800 171.767,130.800 172.275 C 130.800 172.784,130.620 173.200,130.400 173.200 C 130.180 173.200,130.000 173.560,130.000 174.000 C 130.000 174.440,129.820 174.800,129.600 174.800 C 129.380 174.800,129.200 175.340,129.200 176.000 C 129.200 176.660,129.020 177.200,128.800 177.200 C 128.580 177.200,128.400 177.740,128.400 178.400 C 128.400 179.060,128.220 179.600,128.000 179.600 C 127.780 179.600,127.600 180.500,127.600 181.600 C 127.600 182.700,127.420 183.600,127.200 183.600 C 126.958 183.600,126.800 185.333,126.800 188.000 C 126.800 190.667,126.642 192.400,126.400 192.400 C 126.180 192.400,126.000 193.019,126.000 193.776 C 126.000 194.533,126.180 195.264,126.400 195.400 C 126.620 195.536,126.800 197.257,126.800 199.224 C 126.800 201.341,126.963 202.800,127.200 202.800 C 127.420 202.800,127.600 203.520,127.600 204.400 C 127.600 205.280,127.780 206.000,128.000 206.000 C 128.220 206.000,128.400 206.540,128.400 207.200 C 128.400 207.860,128.580 208.400,128.800 208.400 C 129.020 208.400,129.200 208.940,129.200 209.600 C 129.200 210.260,129.380 210.800,129.600 210.800 C 129.820 210.800,130.000 211.120,130.000 211.512 C 130.000 211.903,130.360 212.483,130.800 212.800 C 131.240 213.117,131.600 213.697,131.600 214.088 C 131.600 214.480,131.780 214.800,132.000 214.800 C 132.220 214.800,132.400 215.073,132.400 215.406 C 132.400 216.144,138.177 222.000,138.905 222.000 C 139.190 222.000,139.683 222.360,140.000 222.800 C 140.317 223.240,140.897 223.600,141.288 223.600 C 141.680 223.600,142.000 223.780,142.000 224.000 C 142.000 224.220,142.360 224.400,142.800 224.400 C 143.422 224.400,143.600 224.667,143.600 225.600 C 143.600 226.260,143.780 226.800,144.000 226.800 C 144.220 226.800,144.400 227.340,144.400 228.000 C 144.400 228.660,144.580 229.200,144.800 229.200 C 145.020 229.200,145.200 229.560,145.200 230.000 C 145.200 230.440,145.380 230.800,145.600 230.800 C 145.820 230.800,146.000 231.160,146.000 231.600 C 146.000 232.040,146.180 232.400,146.400 232.400 C 146.620 232.400,146.800 232.720,146.800 233.112 C 146.800 233.503,147.160 234.083,147.600 234.400 C 148.040 234.717,148.400 235.178,148.400 235.425 C 148.400 236.085,151.828 239.600,152.472 239.600 C 152.775 239.600,153.283 239.960,153.600 240.400 C 153.917 240.840,154.497 241.200,154.888 241.200 C 155.280 241.200,155.600 241.380,155.600 241.600 C 155.600 241.820,156.140 242.000,156.800 242.000 C 157.460 242.000,158.000 242.180,158.000 242.400 C 158.000 242.620,158.720 242.800,159.600 242.800 C 160.480 242.800,161.200 242.980,161.200 243.200 C 161.200 243.440,162.800 243.600,165.200 243.600 C 167.600 243.600,169.200 243.440,169.200 243.200 C 169.200 242.978,170.267 242.800,171.600 242.800 C 172.933 242.800,174.000 242.622,174.000 242.400 C 174.000 242.180,174.540 242.000,175.200 242.000 C 175.860 242.000,176.400 241.820,176.400 241.600 C 176.400 241.380,176.940 241.200,177.600 241.200 C 178.260 241.200,178.800 241.020,178.800 240.800 C 178.800 240.580,179.160 240.400,179.600 240.400 C 180.040 240.400,180.400 240.220,180.400 240.000 C 180.400 239.780,180.760 239.600,181.200 239.600 C 181.640 239.600,182.000 239.420,182.000 239.200 C 182.000 238.980,182.345 238.800,182.767 238.800 C 183.188 238.800,183.608 238.577,183.699 238.304 C 183.894 237.718,185.200 238.848,185.200 239.603 C 185.200 239.856,185.920 240.754,186.800 241.600 C 187.680 242.446,188.400 243.335,188.400 243.577 C 188.400 244.156,192.652 248.400,193.231 248.400 C 193.477 248.400,194.183 248.940,194.800 249.600 C 195.417 250.260,196.169 250.800,196.472 250.800 C 196.775 250.800,197.283 251.160,197.600 251.600 C 197.917 252.040,198.497 252.400,198.888 252.400 C 199.280 252.400,199.600 252.580,199.600 252.800 C 199.600 253.020,199.960 253.200,200.400 253.200 C 200.840 253.200,201.200 253.380,201.200 253.600 C 201.200 253.820,201.740 254.000,202.400 254.000 C 203.060 254.000,203.600 254.180,203.600 254.400 C 203.600 254.620,204.140 254.800,204.800 254.800 C 205.460 254.800,206.000 254.980,206.000 255.200 C 206.000 255.451,208.533 255.600,212.800 255.600 C 217.067 255.600,219.600 255.451,219.600 255.200 C 219.600 254.980,220.320 254.800,221.200 254.800 C 222.080 254.800,222.800 254.620,222.800 254.400 C 222.800 254.180,223.340 254.000,224.000 254.000 C 224.660 254.000,225.200 253.820,225.200 253.600 C 225.200 253.380,225.560 253.200,226.000 253.200 C 226.440 253.200,226.800 253.020,226.800 252.800 C 226.800 252.580,227.160 252.400,227.600 252.400 C 228.040 252.400,228.400 252.220,228.400 252.000 C 228.400 251.780,228.760 251.600,229.200 251.600 C 229.640 251.600,230.000 251.420,230.000 251.200 C 230.000 250.980,230.243 250.800,230.541 250.800 C 230.838 250.800,231.646 250.260,232.337 249.600 C 233.028 248.940,233.788 248.400,234.028 248.400 C 234.267 248.400,235.154 247.680,236.000 246.800 C 236.846 245.920,237.755 245.200,238.022 245.200 C 238.622 245.200,240.399 243.182,240.400 242.500 C 240.400 242.225,240.760 242.000,241.200 242.000 C 241.640 242.000,242.000 241.820,242.000 241.600 C 242.000 241.380,242.540 241.200,243.200 241.200 C 243.860 241.200,244.400 241.020,244.400 240.800 C 244.400 240.580,244.940 240.400,245.600 240.400 C 246.260 240.400,246.800 240.220,246.800 240.000 C 246.800 239.780,247.340 239.600,248.000 239.600 C 248.660 239.600,249.200 239.420,249.200 239.200 C 249.200 238.980,249.560 238.800,250.000 238.800 C 250.440 238.800,250.800 238.620,250.800 238.400 C 250.800 238.180,251.160 238.000,251.600 238.000 C 252.040 238.000,252.400 237.820,252.400 237.600 C 252.400 237.380,252.720 237.200,253.112 237.200 C 253.503 237.200,254.083 236.840,254.400 236.400 C 254.717 235.960,255.219 235.600,255.516 235.600 C 256.144 235.600,263.600 228.209,263.600 227.586 C 263.600 227.355,263.960 226.780,264.400 226.308 C 264.840 225.836,265.200 225.213,265.200 224.925 C 265.200 224.636,265.380 224.400,265.600 224.400 C 265.820 224.400,266.000 224.040,266.000 223.600 C 266.000 223.160,266.180 222.800,266.400 222.800 C 266.620 222.800,266.800 222.361,266.800 221.824 C 266.800 221.287,266.980 220.736,267.200 220.600 C 267.420 220.464,267.600 219.924,267.600 219.400 C 267.600 218.876,267.780 218.336,268.000 218.200 C 268.220 218.064,268.400 217.243,268.400 216.376 C 268.400 215.509,268.580 214.800,268.800 214.800 C 269.053 214.800,269.200 212.000,269.200 207.200 C 269.200 202.400,269.053 199.600,268.800 199.600 C 268.580 199.600,268.400 198.880,268.400 198.000 C 268.400 197.120,268.220 196.400,268.000 196.400 C 267.780 196.400,267.600 195.695,267.600 194.833 C 267.600 193.972,267.386 193.195,267.125 193.108 C 266.839 193.013,267.157 192.419,267.925 191.616 C 268.626 190.882,269.200 190.038,269.200 189.741 C 269.200 189.443,269.380 189.200,269.600 189.200 C 269.820 189.200,270.000 188.840,270.000 188.400 C 270.000 187.960,270.180 187.600,270.400 187.600 C 270.620 187.600,270.800 187.240,270.800 186.800 C 270.800 186.360,270.980 186.000,271.200 186.000 C 271.420 186.000,271.600 185.640,271.600 185.200 C 271.600 184.760,271.780 184.400,272.000 184.400 C 272.220 184.400,272.400 183.860,272.400 183.200 C 272.400 182.540,272.580 182.000,272.800 182.000 C 273.020 182.000,273.200 181.280,273.200 180.400 C 273.200 179.520,273.380 178.800,273.600 178.800 C 273.820 178.800,274.000 177.911,274.000 176.824 C 274.000 175.737,274.180 174.736,274.400 174.600 C 274.627 174.460,274.800 172.470,274.800 170.000 C 274.800 167.530,274.627 165.540,274.400 165.400 C 274.180 165.264,274.000 164.083,274.000 162.776 C 274.000 161.459,273.822 160.400,273.600 160.400 C 273.380 160.400,273.200 159.781,273.200 159.024 C 273.200 158.267,273.020 157.536,272.800 157.400 C 272.580 157.264,272.400 156.803,272.400 156.376 C 272.400 155.949,272.220 155.600,272.000 155.600 C 271.780 155.600,271.600 155.184,271.600 154.675 C 271.600 154.167,271.240 153.364,270.800 152.892 C 270.360 152.420,270.000 151.796,270.000 151.505 C 270.000 151.214,269.640 150.717,269.200 150.400 C 268.760 150.083,268.400 149.590,268.400 149.304 C 268.400 148.576,263.347 143.600,262.607 143.600 C 262.273 143.600,262.000 143.420,262.000 143.200 C 262.000 142.980,261.680 142.800,261.288 142.800 C 260.897 142.800,260.317 142.440,260.000 142.000 C 259.683 141.560,259.180 141.200,258.883 141.200 C 257.974 141.200,257.200 140.121,257.200 138.852 C 257.200 138.189,257.020 137.536,256.800 137.400 C 256.580 137.264,256.400 136.803,256.400 136.376 C 256.400 135.949,256.220 135.600,256.000 135.600 C 255.780 135.600,255.600 135.240,255.600 134.800 C 255.600 134.360,255.420 134.000,255.200 134.000 C 254.980 134.000,254.800 133.640,254.800 133.200 C 254.800 132.760,254.620 132.400,254.400 132.400 C 254.180 132.400,254.000 132.127,254.000 131.793 C 254.000 131.001,248.999 126.000,248.207 126.000 C 247.873 126.000,247.600 125.820,247.600 125.600 C 247.600 125.380,247.240 125.200,246.800 125.200 C 246.360 125.200,246.000 125.020,246.000 124.800 C 246.000 124.580,245.460 124.400,244.800 124.400 C 244.140 124.400,243.600 124.220,243.600 124.000 C 243.600 123.780,242.961 123.600,242.181 123.600 C 240.953 123.600,240.388 123.222,238.000 120.800 C 236.481 119.260,234.960 118.000,234.619 118.000 C 234.279 118.000,234.000 117.820,234.000 117.600 C 234.000 117.380,233.640 117.200,233.200 117.200 C 232.760 117.200,232.400 117.020,232.400 116.800 C 232.400 116.580,232.040 116.400,231.600 116.400 C 231.160 116.400,230.800 116.220,230.800 116.000 C 230.800 115.780,230.440 115.600,230.000 115.600 C 229.560 115.600,229.200 115.420,229.200 115.200 C 229.200 114.980,228.840 114.800,228.400 114.800 C 227.960 114.800,227.600 114.620,227.600 114.400 C 227.600 114.180,227.060 114.000,226.400 114.000 C 225.740 114.000,225.200 113.820,225.200 113.600 C 225.200 113.380,224.300 113.200,223.200 113.200 C 222.100 113.200,221.200 113.020,221.200 112.800 C 221.200 112.552,219.067 112.400,215.600 112.400 C 212.133 112.400,210.000 112.552,210.000 112.800 M220.400 118.965 C 226.020 120.335,235.526 125.600,232.381 125.600 C 231.983 125.600,230.221 126.418,227.982 127.643 C 225.838 128.816,221.643 132.471,220.009 134.589 C 218.080 137.089,218.233 137.027,216.149 136.143 C 210.190 133.615,204.180 131.766,199.700 131.083 C 196.507 130.597,196.416 130.489,197.657 128.662 C 202.791 121.104,212.389 117.012,220.400 118.965 M196.264 120.471 C 199.352 121.040,199.484 120.634,194.551 125.727 L 190.502 129.908 187.168 130.203 C 175.009 131.279,166.030 139.463,164.158 151.175 C 163.870 152.974,163.768 153.037,160.563 153.380 C 157.254 153.734,153.185 154.402,152.000 154.784 C 151.450 154.962,150.190 155.332,149.200 155.606 C 148.210 155.880,146.426 156.434,145.237 156.837 C 142.124 157.890,142.120 157.870,144.068 151.200 C 144.929 148.252,144.989 148.103,146.947 144.000 C 155.156 126.801,176.180 116.770,196.264 120.471 M243.758 130.864 C 247.081 132.563,250.304 138.268,250.388 142.600 C 250.429 144.720,250.840 145.521,252.138 146.010 C 262.694 149.991,267.212 156.387,267.193 167.320 C 267.169 180.133,264.131 185.315,253.425 190.798 C 243.053 196.110,241.269 197.152,236.539 200.663 C 232.470 203.683,228.000 210.042,228.000 212.812 C 228.000 214.392,226.805 213.411,224.425 209.878 C 223.713 208.820,222.051 206.800,220.730 205.389 L 218.329 202.823 219.159 201.657 C 219.616 201.016,222.106 198.536,224.693 196.146 C 230.720 190.578,233.838 187.291,236.735 183.452 C 249.788 166.159,243.410 145.911,223.500 141.432 C 222.895 141.296,222.400 141.043,222.400 140.870 C 222.400 140.246,231.833 131.864,233.163 131.307 C 236.260 130.011,241.647 129.785,243.758 130.864 M197.954 134.020 C 203.811 134.949,212.400 137.324,212.400 138.015 C 212.400 138.196,210.961 138.798,209.202 139.352 C 194.329 144.033,184.479 154.859,180.770 170.600 C 180.053 173.643,179.207 180.611,179.203 183.500 C 179.200 186.829,179.274 186.768,177.072 185.238 C 168.570 179.330,165.378 163.804,169.664 149.200 C 173.106 137.472,183.742 131.765,197.954 134.020 M216.230 145.106 C 219.279 147.189,222.400 155.635,222.400 161.800 C 222.400 165.730,221.983 167.796,220.157 172.900 C 219.726 174.104,219.439 173.694,218.056 169.907 C 214.356 159.775,207.322 154.419,197.700 154.405 C 195.885 154.402,194.400 154.258,194.400 154.085 C 194.400 153.189,204.137 148.267,209.400 146.502 C 214.429 144.816,215.488 144.599,216.230 145.106 M227.872 149.440 C 235.311 150.835,240.700 162.258,237.967 170.840 C 236.356 175.901,230.046 184.891,229.050 183.546 C 228.991 183.465,228.456 182.551,227.862 181.514 C 226.999 180.006,225.508 178.526,223.660 177.342 C 223.582 177.293,223.958 176.656,224.495 175.926 C 227.530 171.799,228.916 164.187,227.568 159.046 C 227.331 158.141,226.950 156.680,226.721 155.800 C 226.493 154.920,225.947 153.257,225.509 152.105 C 224.680 149.928,224.795 148.559,225.775 148.935 C 226.087 149.055,227.031 149.282,227.872 149.440 M163.842 160.700 C 162.725 169.587,163.672 176.903,166.454 180.862 C 166.864 181.446,167.201 182.076,167.202 182.262 C 167.210 183.793,174.477 189.905,178.400 191.680 C 182.222 193.410,184.411 194.341,186.600 195.170 C 187.920 195.669,189.360 196.233,189.800 196.422 C 190.240 196.612,191.950 197.213,193.600 197.758 C 198.969 199.532,207.462 202.768,210.800 204.312 C 214.754 206.139,223.066 212.668,222.350 213.383 C 222.239 213.494,221.172 213.229,219.980 212.793 C 213.223 210.323,207.585 212.043,195.000 220.417 C 184.083 227.680,179.217 230.455,172.600 233.195 C 160.436 238.230,151.766 233.210,148.487 219.233 C 148.311 218.481,147.904 217.735,147.583 217.575 C 147.262 217.415,145.616 216.631,143.925 215.832 C 133.988 211.142,130.463 198.920,134.282 182.400 C 137.307 169.310,144.051 162.624,156.939 159.934 C 164.301 158.398,164.133 158.379,163.842 160.700 M197.000 159.963 C 199.253 160.230,199.131 159.841,198.576 165.015 C 197.946 170.878,201.718 174.328,212.800 178.025 C 218.744 180.007,222.212 181.873,224.434 184.284 C 225.937 185.914,226.449 187.200,225.596 187.200 C 225.373 187.200,224.383 187.560,223.396 188.000 C 222.408 188.440,220.792 189.160,219.804 189.600 C 218.817 190.040,217.915 190.400,217.800 190.400 C 217.685 190.400,216.828 190.739,215.896 191.154 C 203.156 196.819,194.850 196.432,187.664 189.839 C 182.483 185.087,182.721 175.158,188.292 163.600 C 190.398 159.232,190.590 159.062,192.997 159.424 C 194.099 159.590,195.900 159.832,197.000 159.963 M205.881 163.650 C 206.497 163.897,207.360 164.234,207.800 164.399 C 213.370 166.484,216.345 169.855,214.623 172.128 C 214.103 172.813,213.961 172.819,212.204 172.222 C 207.196 170.522,204.000 167.403,204.000 164.216 C 204.000 163.080,204.266 163.000,205.881 163.650 M260.314 196.300 C 262.342 203.180,262.120 212.070,259.773 218.000 C 257.494 223.757,252.508 228.517,245.600 231.531 C 243.844 232.297,239.495 233.600,238.693 233.600 C 238.264 233.600,236.193 235.233,234.059 237.254 C 227.612 243.358,223.662 245.684,216.800 247.416 C 207.903 249.662,198.825 245.164,191.058 234.661 C 188.263 230.881,188.251 231.038,191.509 228.524 C 202.552 220.002,212.998 216.046,219.372 217.971 C 220.047 218.175,221.950 218.749,223.600 219.245 C 225.250 219.742,226.786 220.285,227.013 220.451 C 227.632 220.905,227.986 220.523,230.583 216.600 C 234.459 210.746,246.960 199.200,249.423 199.200 C 249.562 199.200,250.154 198.870,250.738 198.467 C 251.800 197.735,258.548 194.977,259.636 194.832 C 259.766 194.814,260.071 195.475,260.314 196.300 " stroke="none" fill="#fcf9fa" fill-rule="evenodd"></path><path id="path2" d="M49.200 72.800 C 49.200 73.020,48.840 73.200,48.400 73.200 C 47.960 73.200,47.600 73.380,47.600 73.600 C 47.600 73.820,47.280 74.000,46.888 74.000 C 46.497 74.000,45.917 74.360,45.600 74.800 C 45.283 75.240,44.772 75.600,44.466 75.600 C 43.785 75.600,41.200 78.353,41.200 79.078 C 41.200 79.365,41.020 79.600,40.800 79.600 C 40.580 79.600,40.400 79.960,40.400 80.400 C 40.400 80.840,40.220 81.200,40.000 81.200 C 39.780 81.200,39.600 81.560,39.600 82.000 C 39.600 82.440,39.420 82.800,39.200 82.800 C 38.980 82.800,38.800 83.340,38.800 84.000 C 38.800 84.660,38.620 85.200,38.400 85.200 C 38.134 85.200,38.000 120.800,38.000 191.200 C 38.000 261.600,38.134 297.200,38.400 297.200 C 38.620 297.200,38.800 297.920,38.800 298.800 C 38.800 299.680,38.980 300.400,39.200 300.400 C 39.420 300.400,39.600 300.720,39.600 301.112 C 39.600 301.503,39.960 302.083,40.400 302.400 C 40.840 302.717,41.200 303.211,41.200 303.497 C 41.200 304.225,45.450 308.400,46.191 308.400 C 46.526 308.400,46.800 308.580,46.800 308.800 C 46.800 309.020,46.181 309.200,45.424 309.200 C 44.667 309.200,43.936 309.380,43.800 309.600 C 43.664 309.820,42.843 310.000,41.976 310.000 C 41.109 310.000,40.400 310.180,40.400 310.400 C 40.400 310.620,39.691 310.800,38.824 310.800 C 37.957 310.800,37.136 310.980,37.000 311.200 C 36.850 311.442,33.996 311.600,29.776 311.600 C 25.392 311.600,22.800 311.749,22.800 312.000 C 22.800 312.222,21.733 312.400,20.400 312.400 C 19.067 312.400,18.000 312.578,18.000 312.800 C 18.000 313.020,17.460 313.200,16.800 313.200 C 16.140 313.200,15.600 313.380,15.600 313.600 C 15.600 313.820,15.060 314.000,14.400 314.000 C 13.740 314.000,13.200 314.180,13.200 314.400 C 13.200 314.620,12.880 314.800,12.488 314.800 C 12.097 314.800,11.517 315.160,11.200 315.600 C 10.883 316.040,10.385 316.400,10.094 316.400 C 9.363 316.400,7.600 318.226,7.600 318.982 C 7.600 319.322,7.420 319.600,7.200 319.600 C 6.980 319.600,6.800 319.960,6.800 320.400 C 6.800 320.840,6.620 321.200,6.400 321.200 C 6.163 321.200,6.000 322.667,6.000 324.800 C 6.000 326.933,6.163 328.400,6.400 328.400 C 6.620 328.400,6.800 328.674,6.800 329.009 C 6.800 329.801,10.999 334.000,11.791 334.000 C 12.126 334.000,12.400 334.180,12.400 334.400 C 12.400 334.620,12.760 334.800,13.200 334.800 C 13.640 334.800,14.000 334.980,14.000 335.200 C 14.000 335.420,14.360 335.600,14.800 335.600 C 15.240 335.600,15.600 335.780,15.600 336.000 C 15.600 336.220,16.320 336.400,17.200 336.400 C 18.080 336.400,18.800 336.580,18.800 336.800 C 18.800 337.066,79.467 337.200,200.000 337.200 C 320.533 337.200,381.200 337.066,381.200 336.800 C 381.200 336.580,381.740 336.400,382.400 336.400 C 383.060 336.400,383.600 336.220,383.600 336.000 C 383.600 335.780,384.140 335.600,384.800 335.600 C 385.460 335.600,386.000 335.420,386.000 335.200 C 386.000 334.980,386.360 334.800,386.800 334.800 C 387.240 334.800,387.600 334.620,387.600 334.400 C 387.600 334.180,387.875 334.000,388.211 334.000 C 388.546 334.000,389.626 333.195,390.611 332.211 C 391.595 331.226,392.400 330.146,392.400 329.811 C 392.400 329.475,392.580 329.200,392.800 329.200 C 393.020 329.200,393.200 328.671,393.200 328.024 C 393.200 327.377,393.380 326.736,393.600 326.600 C 393.820 326.464,394.000 325.654,394.000 324.800 C 394.000 323.946,393.820 323.136,393.600 323.000 C 393.380 322.864,393.200 322.223,393.200 321.576 C 393.200 320.929,393.020 320.400,392.800 320.400 C 392.580 320.400,392.400 320.125,392.400 319.789 C 392.400 319.454,391.595 318.374,390.611 317.389 C 389.626 316.405,388.546 315.600,388.211 315.600 C 387.875 315.600,387.600 315.420,387.600 315.200 C 387.600 314.980,387.240 314.800,386.800 314.800 C 386.360 314.800,386.000 314.620,386.000 314.400 C 386.000 314.180,385.651 314.000,385.224 314.000 C 384.797 314.000,384.336 313.820,384.200 313.600 C 384.064 313.380,383.513 313.200,382.976 313.200 C 382.439 313.200,382.000 313.020,382.000 312.800 C 382.000 312.578,380.933 312.400,379.600 312.400 C 378.267 312.400,377.200 312.222,377.200 312.000 C 377.200 311.747,374.267 311.600,369.200 311.600 C 364.133 311.600,361.200 311.453,361.200 311.200 C 361.200 310.980,360.491 310.800,359.624 310.800 C 358.757 310.800,357.936 310.620,357.800 310.400 C 357.664 310.180,356.764 310.000,355.800 310.000 C 354.836 310.000,353.936 309.820,353.800 309.600 C 353.664 309.380,352.753 309.200,351.776 309.200 C 350.799 309.200,350.000 309.020,350.000 308.800 C 350.000 308.580,349.460 308.400,348.800 308.400 C 348.140 308.400,347.600 308.220,347.600 308.000 C 347.600 307.780,347.876 307.600,348.213 307.600 C 348.962 307.600,351.600 305.031,351.600 304.302 C 351.600 304.013,351.960 303.517,352.400 303.200 C 352.840 302.883,353.200 302.303,353.200 301.912 C 353.200 301.520,353.380 301.200,353.600 301.200 C 353.820 301.200,354.000 300.840,354.000 300.400 C 354.000 299.960,354.180 299.600,354.400 299.600 C 354.620 299.600,354.800 298.880,354.800 298.000 C 354.800 297.120,354.980 296.400,355.200 296.400 C 355.466 296.400,355.600 261.200,355.600 191.600 C 355.600 122.000,355.466 86.800,355.200 86.800 C 354.980 86.800,354.800 86.080,354.800 85.200 C 354.800 84.320,354.620 83.600,354.400 83.600 C 354.180 83.600,354.000 83.240,354.000 82.800 C 354.000 82.360,353.820 82.000,353.600 82.000 C 353.380 82.000,353.200 81.640,353.200 81.200 C 353.200 80.760,353.020 80.400,352.800 80.400 C 352.580 80.400,352.400 80.127,352.400 79.793 C 352.400 79.001,347.399 74.000,346.607 74.000 C 346.273 74.000,346.000 73.820,346.000 73.600 C 346.000 73.380,345.460 73.200,344.800 73.200 C 344.140 73.200,343.600 73.020,343.600 72.800 C 343.600 72.534,294.267 72.400,196.400 72.400 C 98.533 72.400,49.200 72.534,49.200 72.800 M202.000 78.400 C 202.000 78.620,202.463 78.800,203.029 78.800 C 204.186 78.800,205.200 79.627,205.200 80.571 C 205.200 80.917,205.380 81.200,205.600 81.200 C 206.645 81.200,205.978 84.049,204.613 85.413 C 201.183 88.844,193.200 86.733,193.200 82.395 C 193.200 80.463,194.579 78.800,196.182 78.800 C 196.742 78.800,197.200 78.620,197.200 78.400 C 197.200 78.178,198.267 78.000,199.600 78.000 C 200.933 78.000,202.000 78.178,202.000 78.400 M196.100 80.198 C 195.825 80.511,195.600 81.044,195.600 81.383 C 195.600 81.722,195.420 82.000,195.200 82.000 C 194.980 82.000,194.800 82.360,194.800 82.800 C 194.800 83.240,194.980 83.600,195.200 83.600 C 195.420 83.600,195.600 83.883,195.600 84.229 C 195.600 85.530,196.662 86.000,199.600 86.000 C 202.538 86.000,203.600 85.530,203.600 84.229 C 203.600 83.883,203.780 83.600,204.000 83.600 C 204.220 83.600,204.400 83.240,204.400 82.800 C 204.400 82.360,204.220 82.000,204.000 82.000 C 203.780 82.000,203.600 81.717,203.600 81.371 C 203.600 79.655,197.428 78.689,196.100 80.198 M345.200 136.800 C 345.200 161.660,345.109 182.000,344.998 182.000 C 344.887 182.000,329.318 166.520,310.400 147.600 L 276.003 113.200 274.102 113.213 C 272.061 113.226,270.800 113.887,270.800 114.944 C 270.800 115.305,270.620 115.600,270.400 115.600 C 270.180 115.600,270.000 116.500,270.000 117.600 C 270.000 118.700,270.180 119.600,270.400 119.600 C 270.620 119.600,270.800 119.870,270.800 120.201 C 270.800 120.986,336.614 186.800,337.399 186.800 C 338.417 186.800,338.879 186.324,304.000 221.200 L 270.000 255.197 270.000 257.216 C 270.000 260.171,271.132 261.200,274.384 261.200 L 276.803 261.200 310.800 227.200 C 329.498 208.500,344.887 193.200,344.998 193.200 C 345.109 193.200,345.200 213.900,345.200 239.200 L 345.200 285.200 196.000 285.200 L 46.800 285.200 46.800 188.400 L 46.800 91.600 196.000 91.600 L 345.200 91.600 345.200 136.800 M132.400 113.600 C 132.400 113.820,132.130 114.000,131.799 114.000 C 131.469 114.000,115.269 129.930,95.799 149.399 L 60.400 184.799 60.400 187.200 L 60.400 189.601 96.199 225.401 L 131.999 261.200 134.428 261.200 C 137.132 261.200,138.000 260.672,138.000 259.029 C 138.000 258.463,138.180 258.000,138.400 258.000 C 138.620 258.000,138.800 257.640,138.800 257.200 C 138.800 256.760,138.620 256.400,138.400 256.400 C 138.180 256.400,138.000 256.040,138.000 255.600 C 138.000 255.160,137.820 254.800,137.600 254.800 C 137.380 254.800,137.200 254.530,137.200 254.199 C 137.200 253.542,91.453 207.600,90.799 207.600 C 90.272 207.600,70.800 188.127,70.800 187.600 C 70.800 187.378,85.920 172.078,104.400 153.600 C 131.046 126.957,138.000 119.796,138.000 119.002 C 138.000 118.451,138.180 118.000,138.400 118.000 C 138.620 118.000,138.800 117.640,138.800 117.200 C 138.800 116.760,138.620 116.400,138.400 116.400 C 138.180 116.400,138.000 116.122,138.000 115.782 C 138.000 114.472,136.137 113.200,134.218 113.200 C 133.218 113.200,132.400 113.380,132.400 113.600 M378.800 319.200 C 378.800 319.420,379.340 319.600,380.000 319.600 C 380.660 319.600,381.200 319.780,381.200 320.000 C 381.200 320.220,381.560 320.400,382.000 320.400 C 382.440 320.400,382.800 320.580,382.800 320.800 C 382.800 321.020,383.076 321.200,383.413 321.200 C 384.316 321.200,386.800 323.840,386.800 324.800 C 386.800 325.760,384.316 328.400,383.413 328.400 C 383.076 328.400,382.800 328.580,382.800 328.800 C 382.800 329.020,382.260 329.200,381.600 329.200 C 380.940 329.200,380.400 329.380,380.400 329.600 C 380.400 329.820,379.680 330.000,378.800 330.000 C 377.920 330.000,377.200 330.180,377.200 330.400 C 377.200 330.666,317.867 330.800,200.000 330.800 C 82.133 330.800,22.800 330.666,22.800 330.400 C 22.800 330.180,22.080 330.000,21.200 330.000 C 20.320 330.000,19.600 329.820,19.600 329.600 C 19.600 329.380,19.060 329.200,18.400 329.200 C 17.740 329.200,17.200 329.020,17.200 328.800 C 17.200 328.580,16.880 328.400,16.488 328.400 C 16.097 328.400,15.517 328.040,15.200 327.600 C 14.883 327.160,14.303 326.800,13.912 326.800 C 13.333 326.800,13.200 326.458,13.200 324.971 C 13.200 323.136,13.843 322.000,14.883 322.000 C 15.180 322.000,15.683 321.640,16.000 321.200 C 16.317 320.760,16.897 320.400,17.288 320.400 C 17.680 320.400,18.000 320.220,18.000 320.000 C 18.000 319.780,18.720 319.600,19.600 319.600 C 20.480 319.600,21.200 319.420,21.200 319.200 C 21.200 318.934,81.067 318.800,200.000 318.800 C 318.933 318.800,378.800 318.934,378.800 319.200 M152.100 321.798 C 151.508 322.471,151.421 326.800,152.000 326.800 C 152.220 326.800,152.400 327.160,152.400 327.600 C 152.400 328.395,152.667 328.400,195.029 328.400 C 240.303 328.400,238.800 328.461,238.800 326.629 C 238.800 326.283,238.980 326.000,239.200 326.000 C 239.420 326.000,239.600 325.460,239.600 324.800 C 239.600 324.140,239.420 323.600,239.200 323.600 C 238.980 323.600,238.800 323.317,238.800 322.971 C 238.800 321.139,240.301 321.199,195.129 321.215 C 158.909 321.228,152.526 321.315,152.100 321.798 " stroke="none" fill="#242424" fill-rule="evenodd"></path><path id="path3" d="" stroke="none" fill="#589490" fill-rule="evenodd"></path><path id="path4" d="" stroke="none" fill="#582494" fill-rule="evenodd"></path></g></svg>